<?xml version="1.0" standalone="no"?><!DOCTYPE svg PUBLIC "-//W3C//DTD SVG 1.1//EN" "http://www.w3.org/Graphics/SVG/1.1/DTD/svg11.dtd"><svg t="1686654727279" class="icon" viewBox="0 0 1024 1024" version="1.1" xmlns="http://www.w3.org/2000/svg" p-id="4375" xmlns:xlink="http://www.w3.org/1999/xlink" width="20" height="20"><path d="M780.007475 400.288732c0 30.453592-20.594037 55.05899-48.426943 63.216787l3.751441 3.839445-77.30976 77.353762c20.156062 20.200064 32.634258 48.164976 32.634258 79.010495 0 61.60201-49.909713 111.688755-111.688755 111.688755-61.60201 0-111.688755-50.085722-111.688755-111.688755 0-30.845519 12.477172-58.810431 32.722262-79.010495l-54.973032-55.05899-70.76367 70.764694c1.744737 6.064113 3.751441 11.954263 3.751441 18.629289 0 36.996612-30.103622 66.926272-67.100234 66.926272s-67.01223-29.92966-67.01223-66.926272 30.015617-67.057255 67.01223-67.057255c6.631024 0 12.565177 1.962701 18.585287 3.751441l68.1481-68.016093c-12.216229-12.172227-19.633153-28.968775-19.633153-47.424102 0-36.996612 29.92966-67.01223 67.01223-67.01223 36.996612 0 66.926272 30.015617 66.926272 67.01223 0 18.673292-8.202822 34.466999-20.591991 46.332235l67.274196 67.450205c6.716982-1.308809 13.349029-2.094708 20.330024-2.094708s13.787004 0.785899 20.330024 2.094708l66.403363-66.35936c-12.216229-12.172227-19.633153-28.968775-19.633153-47.424102 0-36.996612 29.92966-67.01223 67.01223-67.01223C750.077815 333.275479 780.007475 363.291097 780.007475 400.288732zM958.70846 243.968477l0 536.060999c0 98.642624-79.927377 178.744987-178.700985 178.744987L243.903497 958.774463c-98.599645 0-178.61298-80.101339-178.61298-178.744987L65.290517 243.968477c0-98.772584 80.013335-178.744987 178.61298-178.744987l536.105001 0C878.781082 65.22349 958.70846 145.19487 958.70846 243.968477zM869.44546 288.599977c0-73.994248-60.119239-134.069485-134.113487-134.069485L288.578999 154.530492c-73.994248 0-134.027529 60.075237-134.027529 134.069485l0 446.797999c0 73.994248 60.033281 133.983527 134.027529 133.983527l446.752973 0c73.994248 0 134.113487-59.989279 134.113487-133.983527L869.44546 288.599977z" p-id="4376"></path></svg>